<svg width="137" height="50" viewBox="0 0 137 50" xmlns="http://www.w3.org/2000/svg">
  <g fill="none" fill-rule="evenodd">
    <g fill="#888" fill-rule="nonzero">
      <path
        d="M5.429 22.862c-.085 0-.128-.053-.128-.16V4.462h-4.16c-.107 0-.16-.053-.16-.16L1.013.718c0-.085.043-.128.128-.128h12.16c.107 0 .16.043.16.128v3.584c0 .107-.043.16-.128.16H9.141l.032 18.24c0 .107-.043.16-.128.16H5.429zM15.192 22.862c-.086 0-.128-.053-.128-.16L15.096.718c0-.085.053-.128.16-.128h3.552c.106 0 .16.043.16.128l-.032 8.704h4.8V.718c0-.085.042-.128.128-.128h3.552c.106 0 .16.043.16.128l.064 21.984c0 .107-.054.16-.16.16h-3.584c-.107 0-.16-.053-.16-.16v-9.408h-4.8v9.408c0 .107-.043.16-.128.16h-3.616zM30.426 22.862c-.085 0-.128-.053-.128-.16L30.33.718c0-.085.043-.128.128-.128H40.73c.086 0 .128.053.128.16v3.584c0 .085-.042.128-.128.128h-6.56v4.992h6.56c.086 0 .128.043.128.128l.032 3.616c0 .085-.042.128-.128.128H34.17v5.6h6.592c.086 0 .128.053.128.16v3.648c0 .085-.042.128-.128.128H30.426z" />
    </g>
    <g fill="#888" fill-rule="nonzero">
      <path
        d="M56.692 49.239c-1.152 0-2.197-.288-3.136-.864a6.532 6.532 0 01-2.256-2.32c-.565-.971-.848-2.054-.848-3.248V32.663c0-1.152.283-2.214.848-3.184a6.488 6.488 0 012.272-2.32 5.902 5.902 0 013.12-.864c1.173 0 2.235.282 3.184.848a6.27 6.27 0 012.256 2.288c.555.96.832 2.037.832 3.232v1.472c0 .085-.053.128-.16.128H59.22c-.085 0-.128-.043-.128-.128v-1.216c0-.811-.23-1.483-.688-2.016-.459-.534-1.03-.8-1.712-.8-.619 0-1.168.256-1.648.768s-.72 1.109-.72 1.792v10.144c0 .704.235 1.306.704 1.808.47.5 1.024.752 1.664.752.683 0 1.253-.246 1.712-.736.459-.491.688-1.1.688-1.824v-1.568h-2.24c-.107 0-.16-.054-.16-.16v-3.584c0-.107.053-.16.16-.16h5.984c.085 0 .128.053.128.16v5.312c0 1.194-.283 2.277-.848 3.248a6.532 6.532 0 01-2.256 2.32c-.939.576-1.995.864-3.168.864zM65.399 48.919c-.086 0-.128-.054-.128-.16l.032-21.984c0-.086.042-.128.128-.128h10.272c.085 0 .128.053.128.16v3.584c0 .085-.043.128-.128.128h-6.56v4.992h6.56c.085 0 .128.042.128.128l.032 3.616c0 .085-.043.128-.128.128h-6.592v5.6h6.592c.085 0 .128.053.128.16v3.648c0 .085-.043.128-.128.128H65.399zM79.033 48.919c-.17 0-.256-.075-.256-.224l-.032-21.792c0-.171.086-.256.256-.256h2.88l5.408 12.608-.16-12.352c0-.171.096-.256.288-.256h3.168c.128 0 .192.085.192.256l.032 21.824c0 .128-.053.192-.16.192h-2.816l-5.536-11.776.224 11.52c0 .17-.096.256-.288.256h-3.2zM99.548 49.239a5.878 5.878 0 01-3.152-.88 6.757 6.757 0 01-2.288-2.336c-.576-.971-.864-2.043-.864-3.216l.032-10.144c0-1.174.283-2.24.848-3.2a6.486 6.486 0 012.288-2.304 5.985 5.985 0 013.136-.864c1.152 0 2.197.288 3.136.864a6.574 6.574 0 012.256 2.304c.565.96.848 2.026.848 3.2l.032 10.144c0 1.173-.283 2.245-.848 3.216a6.62 6.62 0 01-2.272 2.336c-.95.586-2 .88-3.152.88zm0-3.872c.64 0 1.2-.262 1.68-.784.48-.523.72-1.115.72-1.776l-.032-10.144c0-.704-.224-1.302-.672-1.792-.448-.491-1.013-.736-1.696-.736-.661 0-1.227.24-1.696.72-.47.48-.704 1.082-.704 1.808v10.144c0 .704.235 1.306.704 1.808.47.5 1.035.752 1.696.752zM108.415 48.919c-.086 0-.128-.054-.128-.16l.064-21.984c0-.086.042-.128.128-.128h3.904c.085 0 .16.042.224.128l2.912 4.224 2.912-4.224c.064-.086.138-.128.224-.128h3.936c.085 0 .128.042.128.128l.064 21.984c0 .106-.043.16-.128.16h-3.616c-.086 0-.128-.054-.128-.16l-.032-16.32-3.36 4.864-3.328-4.864-.032 16.32c0 .106-.043.16-.128.16h-3.616zM125.633 48.919c-.085 0-.128-.054-.128-.16l.032-21.984c0-.086.043-.128.128-.128h10.272c.086 0 .128.053.128.16v3.584c0 .085-.042.128-.128.128h-6.56v4.992h6.56c.086 0 .128.042.128.128l.032 3.616c0 .085-.042.128-.128.128h-6.592v5.6h6.592c.086 0 .128.053.128.16v3.648c0 .085-.042.128-.128.128h-10.336z" />
    </g>
    <g fill="#888" fill-rule="nonzero">
      <path
        d="M50.964 22.861c-.085 0-.128-.053-.128-.16L50.868.717c0-.085.043-.128.128-.128h10.272c.085 0 .128.054.128.16v3.584c0 .086-.043.128-.128.128h-6.56v4.992h6.56c.085 0 .128.043.128.128l.032 3.616c0 .086-.043.128-.128.128h-6.592v5.6H61.3c.085 0 .128.054.128.16v3.648c0 .086-.043.128-.128.128H50.964zM62.903 22.701L66.87.717c.021-.085.074-.128.16-.128h4.64c.085 0 .138.043.16.128l3.808 21.984c.021.107-.022.16-.128.16h-3.552c-.086 0-.139-.053-.16-.16l-.352-2.336h-4.352l-.352 2.336c-.022.107-.075.16-.16.16H63.03c-.086 0-.128-.053-.128-.16zm4.832-5.76h3.072L69.495 7.95l-.192-1.184-.128 1.184-1.44 8.992zM77.817 22.861c-.085 0-.128-.053-.128-.16L77.753.717c0-.085.043-.128.128-.128h6.464c1.152 0 2.214.283 3.184.848a6.488 6.488 0 012.32 2.272c.576.95.864 2.022.864 3.216 0 .79-.117 1.5-.352 2.128-.234.63-.512 1.163-.832 1.6-.32.438-.608.763-.864.976 1.152 1.28 1.728 2.784 1.728 4.512l.032 6.56c0 .107-.053.16-.16.16H86.65c-.085 0-.128-.032-.128-.096v-6.624c0-.768-.272-1.434-.816-2a2.668 2.668 0 00-2-.848h-2.112l-.032 9.408c0 .107-.042.16-.128.16h-3.616zm3.776-13.408h2.752c.662 0 1.248-.245 1.76-.736.512-.49.768-1.088.768-1.792 0-.682-.25-1.269-.752-1.76-.5-.49-1.093-.736-1.776-.736h-2.752v5.024zM95.708 22.861c-.085 0-.128-.053-.128-.16V4.461h-4.16c-.107 0-.16-.053-.16-.16l.032-3.584c0-.085.043-.128.128-.128h12.16c.107 0 .16.043.16.128v3.584c0 .107-.043.16-.128.16H99.42l.032 18.24c0 .107-.043.16-.128.16h-3.616zM105.47 22.861c-.085 0-.127-.053-.127-.16l.032-21.984c0-.085.053-.128.16-.128h3.552c.106 0 .16.043.16.128l-.032 8.704h4.8V.717c0-.085.042-.128.128-.128h3.552c.106 0 .16.043.16.128l.064 21.984c0 .107-.054.16-.16.16h-3.584c-.107 0-.16-.053-.16-.16v-9.408h-4.8v9.408c0 .107-.043.16-.128.16h-3.616z" />
    </g>
    <path stroke="#888" stroke-linecap="square" d="M45.911.664v48.043" />
    <path d="M44.911 48.707H1.979" />
  </g>
</svg>